<?xml version="1.0" encoding="iso-8859-1"?>
<!-- Uploaded to: SVG Repo, www.svgrepo.com, Generator: SVG Repo Mixer Tools -->
<svg height="800px" width="800px" version="1.1" id="Layer_1" xmlns="http://www.w3.org/2000/svg" xmlns:xlink="http://www.w3.org/1999/xlink" 
	 viewBox="0 0 512 512" xml:space="preserve">
<path style="fill:#A36B5B;" d="M503.916,342.232L503.916,342.232c0,23.813-19.304,43.116-43.116,43.116h-10.779v21.558H61.979
	v-21.558H51.2c-23.812,0-43.116-19.304-43.116-43.116l0,0c0-95.248,77.214-172.463,172.463-172.463h150.905
	C426.702,169.768,503.916,246.982,503.916,342.232z"/>
<path style="fill:#8E5644;" d="M460.8,256v21.558L90.376,297.054c-21.962,1.155-39.176,19.3-39.176,41.292v47.002
	c-23.812,0-43.116-19.304-43.116-43.116l0,0c0-31.415,8.404-60.866,23.084-86.232H460.8z"/>
<path style="fill:#D28A4D;" d="M482.358,396.855c0,13.521-4.385,26.677-12.498,37.493l-42.248,56.331
	c-6.25,8.333-16.059,13.238-26.474,13.238H110.863c-10.417,0-20.225-4.904-26.474-13.238L42.14,434.348
	c-8.112-10.817-12.498-23.972-12.498-37.493l0,0c0-17.651,13.838-32.6,31.483-33.054c18.249-0.47,33.191,14.183,33.191,32.326
	c0-17.859,14.477-32.337,32.337-32.337s32.337,14.477,32.337,32.337c0-17.859,14.477-32.337,32.337-32.337
	s32.337,14.477,32.337,32.337c0-17.859,14.477-32.337,32.337-32.337s32.337,14.477,32.337,32.337
	c0-17.859,14.477-32.337,32.337-32.337c17.86,0,32.337,14.477,32.337,32.337c0-17.859,14.477-32.337,32.337-32.337
	s32.337,14.477,32.337,32.337c0-18.143,14.942-32.796,33.191-32.326C468.52,364.255,482.358,379.203,482.358,396.855
	L482.358,396.855z"/>
<path style="fill:#B45330;" d="M145.516,503.916h-34.653c-10.417,0-20.225-4.904-26.474-13.238L42.14,434.347
	c-8.112-10.817-12.498-23.972-12.498-37.493l0,0c0-13.197,7.736-24.88,19.014-30.128c0.743-0.337,2.533-1.149,2.544-1.053
	c0.943,8.221,8.547,23.883,14.216,31.443L145.516,503.916z"/>
<path style="fill:#FFE811;" d="M493.137,256L493.137,256c0,11.906-9.651,21.558-21.558,21.558H40.421
	c-11.906,0-21.558-9.651-21.558-21.558l0,0c0-47.625,38.607-86.232,86.232-86.232h301.811
	C454.53,169.768,493.137,208.375,493.137,256z"/>
<path style="fill:#FFFD9B;" d="M471.579,277.558H83.537c-11.906,0-21.558-9.651-21.558-21.558l0,0
	c0-47.625,38.607-86.232,86.232-86.232h258.695c47.625,0,86.232,38.607,86.232,86.232l0,0
	C493.137,267.906,483.485,277.558,471.579,277.558z"/>
<path style="fill:#78B918;" d="M90.274,8.084h75.453c47.625,0,86.232,38.607,86.232,86.232v75.453h-75.453
	c-47.625,0-86.232-38.607-86.232-86.232V8.084z"/>
<path style="fill:#009175;" d="M90.274,8.084l161.684,161.684h-75.453c-47.625,0-86.232-38.607-86.232-86.232V8.084z"/>
<path style="fill:#A51356;" d="M251.958,191.326c-20.836,0-37.726-16.891-37.726-37.726s16.891-37.726,37.726-37.726
	s37.726,16.891,37.726,37.726S272.794,191.326,251.958,191.326z"/>
<path style="fill:#F2385A;" d="M289.684,153.6c0,13.962-7.591,26.143-18.863,32.667c-11.273-6.523-18.863-18.705-18.863-32.667
	s7.591-26.143,18.863-32.667C282.094,127.457,289.684,139.638,289.684,153.6z"/>
<path d="M512,342.232c0-24.877-4.945-48.903-14.709-71.494c2.5-4.344,3.93-9.378,3.93-14.738c0-52.006-42.31-94.316-94.316-94.316
	H301.096c0.47-2.626,0.715-5.326,0.715-8.084c0-22.502-16.309-41.267-37.726-45.096V35.032c0-10.401,8.463-18.863,18.863-18.863
	s18.863,8.463,18.863,18.863c0,4.465,3.618,8.084,8.084,8.084s8.084-3.62,8.084-8.084C317.979,15.716,302.264,0,282.947,0
	c-19.317,0-35.032,15.716-35.032,35.032v6.531C230.944,16.504,202.246,0,169.768,0H94.316c-4.466,0-8.084,3.62-8.084,8.084v75.453
	c0,32.478,16.504,61.176,41.563,78.147h-22.699c-52.006,0-94.316,42.31-94.316,94.316c0,5.361,1.43,10.394,3.93,14.738
	C4.946,293.329,0,317.356,0,342.232c0,17.305,8.844,33.5,23.256,42.908c-1.103,3.723-1.698,7.658-1.698,11.716
	c0,15.17,5.012,30.208,14.115,42.344L77.92,495.53C85.656,505.843,97.971,512,110.863,512h69.685c4.466,0,8.084-3.62,8.084-8.084
	s-3.618-8.084-8.084-8.084h-69.685c-7.83,0-15.309-3.74-20.008-10.004l-42.247-56.331c-7.017-9.355-10.881-20.948-10.881-32.642
	c0-13.435,10.59-24.637,23.607-24.973c6.579-0.174,12.847,2.27,17.571,6.874c4.725,4.605,7.328,10.774,7.328,17.37
	c0,4.465,3.618,8.084,8.084,8.084c4.466,0,8.084-3.62,8.084-8.084c0-13.373,10.88-24.253,24.253-24.253s24.253,10.879,24.253,24.253
	c0,4.465,3.618,8.084,8.084,8.084c4.466,0,8.084-3.62,8.084-8.084c0-13.373,10.88-24.253,24.253-24.253
	c13.372,0,24.253,10.879,24.253,24.253c0,4.465,3.618,8.084,8.084,8.084s8.084-3.62,8.084-8.084
	c0-13.373,10.88-24.253,24.253-24.253s24.253,10.879,24.253,24.253c0,4.465,3.618,8.084,8.084,8.084s8.084-3.62,8.084-8.084
	c0-13.373,10.88-24.253,24.253-24.253s24.253,10.879,24.253,24.253c0,4.465,3.618,8.084,8.084,8.084c4.466,0,8.084-3.62,8.084-8.084
	c0-13.373,10.88-24.253,24.253-24.253s24.253,10.879,24.253,24.253c0,4.465,3.618,8.084,8.084,8.084c4.466,0,8.084-3.62,8.084-8.084
	c0-6.597,2.602-12.766,7.328-17.37c4.723-4.603,10.957-7.046,17.571-6.874c13.017,0.335,23.607,11.538,23.607,24.973
	c0,11.695-3.864,23.287-10.881,32.643l-42.247,56.33c-4.697,6.265-12.178,10.004-20.008,10.004H212.884
	c-4.466,0-8.084,3.62-8.084,8.084s3.618,8.084,8.084,8.084h188.253c12.892,0,25.207-6.157,32.943-16.471l42.247-56.331
	c9.103-12.135,14.115-27.173,14.115-42.343c0-4.06-0.595-7.996-1.7-11.721C503.046,375.765,512,359.547,512,342.232z M256,123.958
	c16.344,0,29.642,13.297,29.642,29.642S272.344,183.242,256,183.242s-29.642-13.297-29.642-29.642S239.656,123.958,256,123.958z
	 M481.159,370.761c-7.226-8.907-18.028-14.732-30.075-15.043c-11.028-0.271-21.399,3.786-29.271,11.458
	c-1.513,1.476-2.897,3.047-4.143,4.701c-7.383-9.814-19.124-16.172-32.322-16.172c-13.207,0-24.955,6.367-32.337,16.193
	c-7.381-9.826-19.129-16.193-32.337-16.193s-24.955,6.367-32.337,16.193c-7.381-9.826-19.129-16.193-32.337-16.193
	s-24.955,6.367-32.337,16.193c-7.381-9.826-19.129-16.193-32.337-16.193c-13.207,0-24.955,6.367-32.337,16.193
	c-7.381-9.826-19.129-16.193-32.337-16.193c-13.198,0-24.939,6.357-32.321,16.173c-1.246-1.655-2.629-3.226-4.143-4.701
	c-7.872-7.671-18.246-11.735-29.271-11.458c-12.043,0.31-22.84,6.131-30.067,15.031c-9.132-6.537-14.682-17.182-14.682-28.519
	c0-20.666,3.746-40.684,11.149-59.646c3.954,1.956,8.402,3.057,13.104,3.057h335.226c4.466,0,8.084-3.62,8.084-8.084
	c0-4.465-3.618-8.084-8.084-8.084H40.421c-7.43,0-13.474-6.044-13.474-13.474c0-43.091,35.056-78.147,78.147-78.147h81.92
	c4.466,0,8.084-3.62,8.084-8.084c0-4.465-3.618-8.084-8.084-8.084h-6.467c-43.091,0-78.147-35.056-78.147-78.147V16.168h67.368
	c43.091,0,78.147,35.056,78.147,78.147v14.188c-12.587,2.251-23.41,9.659-30.194,19.953l-74.379-79.692
	c-3.046-3.264-8.161-3.441-11.427-0.395c-3.264,3.046-3.441,8.162-0.393,11.426l79.484,85.161c-0.537,2.8-0.818,5.687-0.818,8.641
	c0,25.26,20.55,45.811,45.811,45.811c16.36,0,30.745-8.622,38.851-21.558h112.056c43.091,0,78.147,35.056,78.147,78.147
	c0,7.43-6.044,13.474-13.474,13.474h-64.674c-4.466,0-8.084,3.62-8.084,8.084c0,4.465,3.618,8.084,8.084,8.084h64.674
	c4.702,0,9.15-1.101,13.103-3.056c7.404,18.962,11.15,38.979,11.15,59.646C495.832,353.769,490.33,364.254,481.159,370.761z"/>
</svg>